REM DIRINDEX 1\2,1\3,1\4,1\6,1\5\7,1\5\8
REM DIRNAME folder01,folder02,folder03,folder04,folder05,folder06,folder07,folder08
TITLE ""
FILE "DB4500_5th_6C_52.mp3" MP3
  TRACK 01 AUDIO
    TITLE "0:"
    INDEX 01 00:00:00
  TRACK 02 AUDIO
    TITLE "2:cjc114_5189"
    INDEX 01 00:00:01
  TRACK 03 AUDIO
    TITLE "0:"
    INDEX 01 00:01:26
  TRACK 04 AUDIO
    TITLE "3:cjc114_5190"
    INDEX 01 00:01:50
  TRACK 05 AUDIO
    TITLE "0:"
    INDEX 01 00:02:71
  TRACK 06 AUDIO
    TITLE "4:cjc114_5191"
    INDEX 01 00:03:19
  TRACK 07 AUDIO
    TITLE "0:"
    INDEX 01 00:06:04
  TRACK 08 AUDIO
    TITLE "2:cjc114_5192"
    INDEX 01 00:06:47
  TRACK 09 AUDIO
    TITLE "0:"
    INDEX 01 00:07:58
  TRACK 10 AUDIO
    TITLE "3:cjc114_5193"
    INDEX 01 00:08:07
  TRACK 11 AUDIO
    TITLE "0:"
    INDEX 01 00:09:24
  TRACK 12 AUDIO
    TITLE "4:cjc114_5194"
    INDEX 01 00:09:44
  TRACK 13 AUDIO
    TITLE "0:"
    INDEX 01 00:13:12
  TRACK 14 AUDIO
    TITLE "2:cjc114_5195"
    INDEX 01 00:13:57
  TRACK 15 AUDIO
    TITLE "0:"
    INDEX 01 00:15:07
  TRACK 16 AUDIO
    TITLE "3:cjc114_5196"
    INDEX 01 00:15:28
  TRACK 17 AUDIO
    TITLE "0:"
    INDEX 01 00:16:36
  TRACK 18 AUDIO
    TITLE "4:cjc114_5197"
    INDEX 01 00:16:55
  TRACK 19 AUDIO
    TITLE "0:"
    INDEX 01 00:22:01
  TRACK 20 AUDIO
    TITLE "2:cjc114_5198"
    INDEX 01 00:22:38
  TRACK 21 AUDIO
    TITLE "0:"
    INDEX 01 00:23:63
  TRACK 22 AUDIO
    TITLE "3:cjc114_5199"
    INDEX 01 00:24:08
  TRACK 23 AUDIO
    TITLE "0:"
    INDEX 01 00:25:45
  TRACK 24 AUDIO
    TITLE "4:cjc114_5200"
    INDEX 01 00:25:62
  TRACK 25 AUDIO
    TITLE "0:"
    INDEX 01 00:29:17
  TRACK 26 AUDIO
    TITLE "2:cjc114_5201"
    INDEX 01 00:29:64
  TRACK 27 AUDIO
    TITLE "0:"
    INDEX 01 00:31:14
  TRACK 28 AUDIO
    TITLE "3:cjc114_5202"
    INDEX 01 00:31:35
  TRACK 29 AUDIO
    TITLE "0:"
    INDEX 01 00:33:15
  TRACK 30 AUDIO
    TITLE "4:cjc114_5203"
    INDEX 01 00:33:34
  TRACK 31 AUDIO
    TITLE "0:"
    INDEX 01 00:36:25
  TRACK 32 AUDIO
    TITLE "2:cjc114_5204"
    INDEX 01 00:36:72
  TRACK 33 AUDIO
    TITLE "0:"
    INDEX 01 00:38:14
  TRACK 34 AUDIO
    TITLE "3:cjc114_5205"
    INDEX 01 00:38:31
  TRACK 35 AUDIO
    TITLE "0:"
    INDEX 01 00:39:52
  TRACK 36 AUDIO
    TITLE "4:cjc114_5206"
    INDEX 01 00:39:72
  TRACK 37 AUDIO
    TITLE "0:"
    INDEX 01 00:44:32
  TRACK 38 AUDIO
    TITLE "2:cjc114_5207"
    INDEX 01 00:44:71
  TRACK 39 AUDIO
    TITLE "0:"
    INDEX 01 00:46:06
  TRACK 40 AUDIO
    TITLE "3:cjc114_5208"
    INDEX 01 00:46:25
  TRACK 41 AUDIO
    TITLE "0:"
    INDEX 01 00:47:42
  TRACK 42 AUDIO
    TITLE "4:cjc114_5209"
    INDEX 01 00:47:64
  TRACK 43 AUDIO
    TITLE "0:"
    INDEX 01 00:50:72
  TRACK 44 AUDIO
    TITLE "2:cjc114_5210"
    INDEX 01 00:51:42
  TRACK 45 AUDIO
    TITLE "0:"
    INDEX 01 00:52:47
  TRACK 46 AUDIO
    TITLE "3:cjc114_5211"
    INDEX 01 00:52:67
  TRACK 47 AUDIO
    TITLE "0:"
    INDEX 01 00:53:74
  TRACK 48 AUDIO
    TITLE "4:cjc114_5212"
    INDEX 01 00:54:17
  TRACK 49 AUDIO
    TITLE "0:"
    INDEX 01 00:59:22
  TRACK 50 AUDIO
    TITLE "2:cjc114_5213"
    INDEX 01 00:59:61
  TRACK 51 AUDIO
    TITLE "0:"
    INDEX 01 01:01:05
  TRACK 52 AUDIO
    TITLE "3:cjc114_5214"
    INDEX 01 01:01:25
  TRACK 53 AUDIO
    TITLE "0:"
    INDEX 01 01:02:42
  TRACK 54 AUDIO
    TITLE "4:cjc114_5215"
    INDEX 01 01:02:65
  TRACK 55 AUDIO
    TITLE "0:"
    INDEX 01 01:05:66
  TRACK 56 AUDIO
    TITLE "2:cjc114_5216"
    INDEX 01 01:06:36
  TRACK 57 AUDIO
    TITLE "0:"
    INDEX 01 01:07:39
  TRACK 58 AUDIO
    TITLE "3:cjc114_5217"
    INDEX 01 01:07:63
  TRACK 59 AUDIO
    TITLE "0:"
    INDEX 01 01:09:09
  TRACK 60 AUDIO
    TITLE "4:cjc114_5218"
    INDEX 01 01:09:26
  TRACK 61 AUDIO
    TITLE "0:"
    INDEX 01 01:13:45
  TRACK 62 AUDIO
    TITLE "2:cjc114_5219"
    INDEX 01 01:14:14
  TRACK 63 AUDIO
    TITLE "0:"
    INDEX 01 01:15:23
  TRACK 64 AUDIO
    TITLE "3:cjc114_5220"
    INDEX 01 01:15:42
  TRACK 65 AUDIO
    TITLE "0:"
    INDEX 01 01:16:71
  TRACK 66 AUDIO
    TITLE "4:cjc114_5221"
    INDEX 01 01:17:16
  TRACK 67 AUDIO
    TITLE "0:"
    INDEX 01 01:20:44
  TRACK 68 AUDIO
    TITLE "2:cjc114_5222"
    INDEX 01 01:21:18
  TRACK 69 AUDIO
    TITLE "0:"
    INDEX 01 01:22:25
  TRACK 70 AUDIO
    TITLE "3:cjc114_5223"
    INDEX 01 01:22:42
  TRACK 71 AUDIO
    TITLE "0:"
    INDEX 01 01:23:73
  TRACK 72 AUDIO
    TITLE "4:cjc114_5224"
    INDEX 01 01:24:18
  TRACK 73 AUDIO
    TITLE "0:"
    INDEX 01 01:27:04
  TRACK 74 AUDIO
    TITLE "2:cjc114_5225"
    INDEX 01 01:27:46
  TRACK 75 AUDIO
    TITLE "0:"
    INDEX 01 01:28:59
  TRACK 76 AUDIO
    TITLE "3:cjc114_5226"
    INDEX 01 01:29:05
  TRACK 77 AUDIO
    TITLE "0:"
    INDEX 01 01:30:48
  TRACK 78 AUDIO
    TITLE "4:cjc114_5227"
    INDEX 01 01:30:71
  TRACK 79 AUDIO
    TITLE "0:"
    INDEX 01 01:34:38
